<svg width="56" height="12" viewBox="0 0 56 12" fill="none" xmlns="http://www.w3.org/2000/svg">
<g clip-path="url(#clip0_152_24)">
<path d="M8.1475 8.35C8.1475 7.86 8.1575 7.34 8.1775 7.02C8.2075 6.67 8.3175 6.56 8.5575 6.51C8.6575 6.5 8.7875 6.48 8.8275 6.48C8.9275 6.47 8.9875 6.45 8.9875 6.38C8.9875 6.3 8.9075 6.28 8.7575 6.28C8.2175 6.28 7.5675 6.31 7.2075 6.31C6.9375 6.31 6.1675 6.28 5.5175 6.28C5.3575 6.28 5.3075 6.32 5.3075 6.38C5.3075 6.44 5.3875 6.48 5.4675 6.48C5.6375 6.5 5.7675 6.51 5.8975 6.53C6.2375 6.58 6.3675 6.79 6.3675 7.36C6.3775 7.73 6.3775 8.12 6.3775 8.53V9.14C6.3775 9.26 6.3375 9.35 6.2575 9.41C6.1075 9.52 5.8375 9.53 5.6975 9.53C3.5975 9.53 2.7375 7.62 2.7375 5.83C2.7375 4.85 2.9775 4.11 3.3675 3.67C3.8175 3.16 4.4175 2.95 5.1575 2.95C6.5475 2.95 7.4375 3.43 7.6275 4.11C7.7275 4.35 7.7275 4.46 7.7475 4.61C7.7575 4.69 7.7975 4.77 7.8675 4.77C7.9375 4.77 7.9775 4.72 7.9775 4.56C7.9775 3.23 8.0675 2.82 8.0875 2.72C8.0975 2.63 8.0775 2.59 7.9875 2.59C7.6975 2.58 7.3675 2.51 7.0275 2.47C6.5975 2.4 6.0175 2.33 5.4075 2.33C4.6475 2.33 3.5675 2.38 2.5375 2.99C1.6075 3.52 0.7375 4.58 0.7375 6.25C0.7375 8.91 2.6875 10.17 5.4975 10.17C6.3975 10.17 7.4175 10 7.9475 9.79C8.1275 9.72 8.1475 9.66 8.1475 9.07V8.35ZM13.7865 7.96C13.8165 7.96 13.8565 7.98 13.8665 8.02L14.5365 9.61C14.5665 9.7 14.5265 9.77 14.4165 9.79C14.3265 9.81 14.2765 9.85 14.2765 9.91C14.2765 9.97 14.3365 10 14.4965 10C15.1365 10.01 16.2765 10.03 17.2565 10.03C17.4465 10.03 17.5165 10 17.5165 9.93C17.5165 9.87 17.4565 9.83 17.3265 9.83C17.2365 9.82 17.1165 9.82 17.0065 9.79C16.6565 9.74 16.4365 9.5 16.0965 8.72C15.4165 7.2 13.7365 3.37 13.4765 2.81C13.3065 2.45 13.2165 2.31 13.1165 2.31C13.0065 2.31 12.8965 2.46 12.7065 2.89L10.0365 8.93C9.82648 9.41 9.62648 9.72 9.27648 9.79C9.17648 9.81 9.07648 9.82 8.95648 9.83C8.83648 9.83 8.76648 9.85 8.76648 9.93C8.76648 9.99 8.82648 10.03 8.96648 10.03C9.46648 10.03 10.1265 10 10.2365 10C10.7665 10 11.1065 10.03 11.5565 10.03C11.6865 10.03 11.7665 10.01 11.7665 9.93C11.7665 9.88 11.7365 9.83 11.5865 9.83C11.5065 9.82 11.3465 9.81 11.2365 9.79C11.0265 9.77 10.9365 9.68 10.9365 9.49C10.9365 9.37 10.9965 9.11 11.0965 8.85L11.4065 8.03C11.4265 7.98 11.4465 7.96 11.4965 7.96H13.7865ZM11.7865 7.16C11.7565 7.16 11.7365 7.14 11.7465 7.11L12.5965 4.97C12.6165 4.92 12.6365 4.9 12.6665 4.97L13.5465 7.11C13.5565 7.13 13.5565 7.16 13.4965 7.16H11.7865ZM18.3979 7.13C18.3979 8.11 18.3779 8.83 18.3379 9.25C18.3079 9.54 18.2379 9.76 18.0279 9.79C17.9179 9.81 17.8179 9.82 17.7179 9.83C17.5979 9.83 17.5179 9.86 17.5179 9.93C17.5179 10.01 17.5979 10.03 17.7579 10.03C18.0979 10.03 19.1479 10 19.1979 10C19.2879 10 20.3579 10.03 21.0379 10.03C21.1979 10.03 21.2479 9.98 21.2479 9.93C21.2479 9.87 21.2079 9.83 21.0379 9.83C20.9079 9.82 20.7279 9.81 20.5979 9.78C20.2979 9.71 20.2379 9.53 20.2179 9.27C20.1779 8.85 20.1679 7.92 20.1679 7.13V5.37C20.1679 3.82 20.1679 3.56 20.1979 3.24C20.2179 2.88 20.3179 2.75 20.5779 2.7C20.7079 2.68 20.7679 2.68 20.8679 2.67C20.9679 2.67 21.0579 2.65 21.0579 2.57C21.0579 2.51 21.0079 2.47 20.8379 2.47C20.4779 2.47 19.2979 2.5 19.2079 2.5C19.1279 2.5 18.1479 2.47 17.7479 2.47C17.5779 2.47 17.5279 2.5 17.5279 2.56C17.5279 2.63 17.5979 2.67 17.7179 2.67C17.8479 2.68 17.9479 2.69 18.0179 2.71C18.2379 2.75 18.3479 2.93 18.3679 3.21C18.3979 3.53 18.3979 3.82 18.3979 5.37V7.13ZM26.1205 7.96C26.1505 7.96 26.1905 7.98 26.2005 8.02L26.8705 9.61C26.9005 9.7 26.8605 9.77 26.7505 9.79C26.6605 9.81 26.6105 9.85 26.6105 9.91C26.6105 9.97 26.6705 10 26.8305 10C27.4705 10.01 28.6105 10.03 29.5905 10.03C29.7805 10.03 29.8505 10 29.8505 9.93C29.8505 9.87 29.7905 9.83 29.6605 9.83C29.5705 9.82 29.4505 9.82 29.3405 9.79C28.9905 9.74 28.7705 9.5 28.4305 8.72C27.7505 7.2 26.0705 3.37 25.8105 2.81C25.6405 2.45 25.5505 2.31 25.4505 2.31C25.3405 2.31 25.2305 2.46 25.0405 2.89L22.3705 8.93C22.1605 9.41 21.9605 9.72 21.6105 9.79C21.5105 9.81 21.4105 9.82 21.2905 9.83C21.1705 9.83 21.1005 9.85 21.1005 9.93C21.1005 9.99 21.1605 10.03 21.3005 10.03C21.8005 10.03 22.4605 10 22.5705 10C23.1005 10 23.4405 10.03 23.8905 10.03C24.0205 10.03 24.1005 10.01 24.1005 9.93C24.1005 9.88 24.0705 9.83 23.9205 9.83C23.8405 9.82 23.6805 9.81 23.5705 9.79C23.3605 9.77 23.2705 9.68 23.2705 9.49C23.2705 9.37 23.3305 9.11 23.4305 8.85L23.7405 8.03C23.7605 7.98 23.7805 7.96 23.8305 7.96H26.1205ZM24.1205 7.16C24.0905 7.16 24.0705 7.14 24.0805 7.11L24.9305 4.97C24.9505 4.92 24.9705 4.9 25.0005 4.97L25.8805 7.11C25.8905 7.13 25.8905 7.16 25.8305 7.16H24.1205ZM33.5346 7.13C33.5346 7.99 33.5146 8.7 33.4846 9.18C33.4546 9.57 33.3546 9.76 33.1546 9.79C33.0446 9.81 32.9746 9.82 32.8446 9.83C32.7346 9.83 32.6546 9.86 32.6546 9.93C32.6546 9.98 32.6846 10.03 32.8546 10.03C33.1346 10.03 33.2646 10.02 33.5446 10.01C33.8246 10 34.0646 10 34.3046 10C34.4946 10 34.9046 10.03 35.2946 10.07C35.6246 10.1 35.9646 10.11 36.3646 10.11C38.3746 10.11 39.2946 9.42 39.7846 8.92C40.3546 8.38 40.8846 7.39 40.8846 6.18C40.8846 4.99 40.4346 4.15 39.9246 3.64C39.0146 2.71 37.6746 2.49 35.9646 2.48C35.1246 2.49 34.6746 2.5 34.3446 2.5C33.9046 2.5 32.9846 2.47 32.7346 2.47C32.5646 2.47 32.5046 2.5 32.5046 2.56C32.5046 2.61 32.5446 2.66 32.6946 2.67C32.8846 2.69 32.9846 2.69 33.0646 2.7C33.4446 2.74 33.4946 3.01 33.5146 3.3C33.5346 3.62 33.5346 3.9 33.5346 5.37V7.13ZM35.3046 5.21C35.3046 4.4 35.3246 3.68 35.3146 3.34C35.3146 3.25 35.3246 3.2 35.4046 3.16C35.4946 3.11 35.7246 3.08 35.9446 3.08C36.6046 3.08 37.5546 3.27 38.2446 4.17C38.6646 4.74 38.9946 5.55 38.9946 6.46C38.9946 7.4 38.8646 8.29 38.3446 8.81C37.8146 9.36 37.2246 9.51 36.5246 9.51C36.0846 9.51 35.6746 9.37 35.4946 9.15C35.3846 9.04 35.3446 8.84 35.3246 8.43C35.3146 8.24 35.3046 7.55 35.3046 6.49V5.21ZM42.8413 7.13C42.8413 7.75 42.8313 8.34 42.8113 8.74C42.7913 9.37 42.7512 9.75 42.4713 9.79C42.3913 9.81 42.2913 9.82 42.1713 9.83C42.0213 9.83 41.9713 9.88 41.9713 9.93C41.9713 10 42.0313 10.03 42.2113 10.03C42.7613 10.03 43.1813 10 43.6513 10C44.7013 10 45.4513 10.06 46.8313 10.06C47.2013 10.06 47.2713 10.05 47.3413 9.79C47.3913 9.6 47.5013 8.84 47.5013 8.45C47.5013 8.33 47.4913 8.23 47.4113 8.23C47.3513 8.23 47.3113 8.29 47.2913 8.41C47.2013 8.87 47.0813 9.09 46.8013 9.2C46.5213 9.31 46.1313 9.32 45.8713 9.32C44.7613 9.32 44.6213 9.16 44.6113 8.46C44.6013 8.08 44.6113 7.49 44.6113 7.15V6.46C44.6113 6.38 44.6213 6.33 44.6713 6.33C44.9813 6.33 45.8013 6.35 46.0813 6.37C46.5713 6.4 46.7113 6.57 46.7513 6.86C46.7613 6.94 46.7713 7.01 46.7813 7.09C46.8013 7.18 46.8213 7.25 46.8913 7.25C46.9513 7.25 46.9813 7.19 46.9813 7.06C46.9813 6.95 46.9813 6.46 46.9913 6.23C47.0213 5.84 47.0713 5.48 47.0713 5.38C47.0713 5.32 47.0713 5.26 47.0113 5.26C46.9613 5.26 46.9312 5.3 46.8713 5.39C46.7613 5.57 46.6313 5.6 46.1413 5.62C45.7813 5.63 44.9713 5.64 44.6913 5.63C44.6213 5.63 44.6113 5.58 44.6113 5.51V3.31C44.6113 3.24 44.6313 3.21 44.6913 3.21C44.9913 3.21 45.8613 3.23 46.1913 3.26C46.6713 3.3 46.8013 3.43 46.8513 3.66C46.8913 3.8 46.9013 3.9 46.9013 4.01C46.9113 4.1 46.9513 4.15 47.0013 4.15C47.0613 4.15 47.1013 4.09 47.1013 4.01C47.1313 3.49 47.1513 3.14 47.1813 2.94C47.2113 2.65 47.2313 2.55 47.2313 2.5C47.2313 2.45 47.2213 2.41 47.1713 2.41C47.1313 2.41 47.0813 2.43 47.0113 2.45C46.9113 2.47 46.6713 2.49 46.4713 2.49C46.3113 2.49 43.8613 2.5 43.6513 2.5C43.2113 2.5 42.7313 2.47 42.1613 2.47C42.0013 2.47 41.9412 2.5 41.9412 2.56C41.9412 2.62 41.9913 2.66 42.1213 2.67C42.2213 2.68 42.3613 2.68 42.4513 2.7C42.7013 2.76 42.7913 2.93 42.8113 3.22C42.8313 3.54 42.8413 3.74 42.8413 5.37V7.13ZM49.3037 9.07C48.9437 9.58 48.6937 9.73 48.4337 9.79C48.3337 9.82 48.1837 9.83 48.1037 9.83C47.9737 9.83 47.9337 9.88 47.9337 9.93C47.9337 10 47.9937 10.03 48.1237 10.03C48.2637 10.03 48.9337 10 49.2637 10C49.6337 10 50.4737 10.04 50.6937 10.04C50.8237 10.04 50.8937 10.02 50.8937 9.94C50.8937 9.87 50.8137 9.83 50.7037 9.83C50.6137 9.82 50.5037 9.81 50.4437 9.8C50.2937 9.78 50.2037 9.71 50.1937 9.61C50.1937 9.5 50.2537 9.37 50.3537 9.21L51.6937 7.1C51.9937 7.63 52.7537 8.9 53.0837 9.54C53.1437 9.65 53.1237 9.74 52.9937 9.78C52.9237 9.8 52.8737 9.83 52.8737 9.88C52.8737 9.93 52.9137 9.97 53.0737 9.98C53.6537 10.01 54.5937 10.03 56.0337 10.03C56.1737 10.03 56.2337 10 56.2337 9.93C56.2337 9.87 56.2037 9.83 56.0637 9.83C55.9337 9.82 55.8337 9.81 55.7037 9.78C55.4137 9.73 55.2437 9.57 55.1037 9.39C54.7237 8.88 53.3037 6.56 52.8337 5.78L54.4837 3.53C54.9337 2.91 55.0937 2.78 55.3837 2.71C55.4537 2.69 55.5337 2.68 55.6437 2.67C55.7737 2.67 55.8337 2.64 55.8337 2.56C55.8337 2.5 55.7537 2.47 55.6437 2.47C55.1937 2.47 54.7137 2.5 54.4537 2.5C54.2137 2.5 53.6537 2.47 53.2537 2.47C53.0937 2.47 53.0537 2.52 53.0537 2.57C53.0537 2.63 53.1237 2.67 53.2037 2.67C53.3337 2.68 53.4437 2.69 53.5437 2.71C53.7237 2.74 53.7737 2.81 53.7737 2.89C53.7737 2.96 53.7437 3.09 53.6037 3.3C53.3837 3.66 52.6937 4.74 52.4237 5.13C52.1937 4.73 51.7837 4.08 51.3737 3.35C51.2837 3.2 51.1737 2.99 51.1737 2.88C51.1737 2.81 51.2137 2.74 51.3137 2.71C51.3837 2.69 51.4837 2.68 51.5637 2.67C51.6737 2.66 51.7337 2.63 51.7337 2.56C51.7337 2.49 51.6537 2.47 51.5137 2.47C50.9837 2.47 50.1337 2.5 49.9537 2.5C48.8937 2.5 48.5537 2.47 48.3637 2.47C48.2137 2.47 48.1437 2.49 48.1437 2.56C48.1437 2.61 48.1637 2.66 48.2937 2.67C48.3637 2.68 48.4437 2.69 48.5837 2.71C49.0637 2.79 49.2437 3.06 49.5437 3.57L51.2637 6.38L49.3037 9.07Z" fill="#B19C76"/>
</g>
<defs>
<clipPath id="clip0_152_24">
<rect width="56" height="12" fill="white"/>
</clipPath>
</defs>
</svg>
